<?xml version="1.0" encoding="utf-8"?>
<!-- Generator: Adobe Illustrator 23.0.1, SVG Export Plug-In . SVG Version: 6.00 Build 0)  -->
<svg version="1.1" id="Layer_1" xmlns="http://www.w3.org/2000/svg" xmlns:xlink="http://www.w3.org/1999/xlink" x="0px" y="0px"
	 viewBox="0 0 359 60" style="enable-background:new 0 0 359 60;" xml:space="preserve">
<style type="text/css">
	.st0{fill-rule:evenodd;clip-rule:evenodd;fill:#F2F2F2;}
</style>
<title>Group 6</title>
<desc>Created with Sketch.</desc>
<g id="Primer_plano">
	<g>
		<path class="st0" d="M37.1,4c6.2-0.4,14.2,2.4,17,3.9c-0.9,0.8-2.2,2.1-3,3.6C49.7,11.6,39.4,6.2,34.9,7
			c-4.9,0.8-9.5,3.3-10.8,8.5c-1.1,4.2,7.2,3.9,11.5-3.9h1c0,0-2.7,5-4.8,6.9c-5,4.5-10.8,4-10.8,0.6C21,12.2,29.3,4.5,37.1,4z
			 M47.9,11.6c-3.9,1.1-9.3,9.8-9.5,10.2c-0.5,0.6-4.5,8.6-8.4,13.3c-4.9,5.9-8.5,8-11.5,8.3c-2.8,0.2-5.8-1.1-5.9-4.2
			c-0.2-3.9,3-6.1,4.9-6.1c0.7,0,1.5,0.6,1.5,1.4c-0.2,2.3-3.5,2-3.5,2S14,37,14.1,39c0,1.7,3.8,5.7,8.2-0.1c4.8-6.3,9.6-16,14-20.8
			C42.8,10.5,47.9,11.6,47.9,11.6z M68.2,24.3c1-0.6,1.9,0,1.5,0.9c-2.2,4.2-5.4,7.4-9.8,9.8C61.8,30,64.8,26.2,68.2,24.3z M58.7,14
			c0,0,1,0,2.2-0.4c-4.7,6.1-13.2,11.7-13.3,11.7c0,0,0.4,0.1,0.5,0c6.3-4.7,8.4-1,7.4,0.8c-2.7,5.3-4.3,6.8-7.2,12.1
			c-0.5,0.9-0.5,1.9,2.2,1.4c1.1-0.3,2.4-1.1,3.3-1.9c2.8-9.4,11.1-15.7,15.6-14.8c0.9,0.2,1.7,1.4,1.5,2.2
			c-1.4,5.4-7.1,9-11.8,12.6c-0.6,0.5,0.7,6,8.4-3.5h1.3c-9.3,13.7-15.3,7.4-15.1,5.6c-0.6,0.4-3.9,2.4-7.1,3
			c-2.9,0.6-3.8-1-3.6-2.2c0.6-3.1,7.2-12.8,7.5-13.9c0.3-0.7-0.5-1.3-0.8-1c-2.2,1.2-2-0.5-13,17h-4.8c0-0.2,13.9-21.7,14.5-22.7
			c3.2-4.8,16.5-21.7,19.1-15.2c0.2,0.5,0.2,0.9-0.2,1.8c0,0-0.6,0.4-1.8,0.5c1-1.7-0.1-2.4-0.6-2.1c-5.2,2.8-13,16.8-13,16.8
			C53.6,19.6,58.3,14.7,58.7,14z M60.4,8.9c-1.4,1.7-1.7,2.1-3,4.1c4.9,0.8,13.9-5.8,14.9-8.8C68.8,6.8,66.2,8.3,60.4,8.9z"/>
		<path class="st0" d="M104.2,3.9c2.8-0.6,4.8,0.9,4.5,3.8c-0.6,4.3-4.1,5-4.2,3c-0.1-2.5,1.7-2.8,2.8-3c0.6-1.1-0.5-2.8-3.1-1.5
			c-16.1,7.9-28.4,38.2-7.4,34.6c5.8-1,11.1-2.9,18.4-4.2c13.1-2.3,19.8,6.2,19.8,6.2s-10.9-4.8-14,0.5c-3.1-3.8-7.5-4.1-12.5-3.7
			c-7.4,0.7-14.4,4.4-19.6,3.4c-6.6-1.2-7.7-4.3-8.5-9.1C78.4,24.8,91.3,6.3,104.2,3.9z M167.4,3.9c1.5-0.1,2.5,0.3,3.1,1
			c8.3-3.3,15.9,2.4,18.1,3.6c-0.8,0.6-2.4,2.5-3.1,3.2c-1.7,0-10.5-6.9-14-5.2c0.1,2.1-1,8.5-5.8,12c-4.2,3-6,0.6-5.3-2.6
			c0.3-1.4,2.7-6.8,8.6-10.2c0,0-1.1-0.3-1.7-0.1c-12.6,3.2-29.7,32.2-19.6,34.2c4.7,0.9,11.2-7.9,11.1-12.8c0-0.7-0.2-2.6-1.9-1.7
			c-1.7,0.8-3.4,3.5-3.8,6.3c-2.3,0.3-5.1,3.6-5.1,3.6c-0.1-1.6,2.7-12.2,9.9-12c4.3,0.1,2.4,8.1-0.9,12.3c-8.3,10.8-17,9-17.6,0.4
			C138.7,27.2,152.7,4.8,167.4,3.9z M170.1,7.1c0.5,4.8-4.3,10.4-6.4,11.2c-2.4,0.9-2.3-0.3-2.4-0.9C161.2,14.9,166,8.1,170.1,7.1z
			 M105,13.9c1.7-0.7,4.4-0.1,4.6,1.8c0.1,2-0.2,3.4-1.1,5.1c4-0.4,7.5-8.1,12.6-7.3c4.4,0.6,1.9,7.3-0.6,7.2
			c-1.4-0.1-1.1-1.1-1-1.9c0.1-1,1.4-1.9,2.7-2c0-0.4-0.1-1.5-1.2-1.4c-1.7,0.2-6.2,4.3-8.7,11.5c-0.6,1.6-0.1,4,1.8,3.6
			c1.5-0.4,2.8-0.9,4.8-3.4c6.5-8.3,9.2-12.3,13-13.3c2.4-0.6,3.4,0.7,3.4,0.7c0.1,0,0.6-0.5,0.9-0.8h3.9c-0.4,0.7-5,8.8-8.3,14.6
			c-0.5,0.8,0.1,1.5,0.4,1.3c2.5-1.4,4.5-3.9,5.8-6.1l1-0.1c0,0.2-3.3,6.3-7.2,8.9c-3.5,2.2-4.9,0.6-5.1-1.6
			c-0.5,0.6-8.3,7.2-7.2-2.3c-4.2,6-17.2,9.2-9.7-6.3c-1.1,0.4-1.2,0.2-1.9,0.4c0,0-4.9,10-10.6,10.9c-2,0.3-3.1-0.9-3.3-2.6
			C93.3,25,98.7,16.8,105,13.9z M142.8,13.8c1.3,0.1,1.7-0.1,3.7-0.1c-0.7,1.4-1.7,3.4-2.1,3.4c-1.7,0-3.8,0.3-3.5-0.2
			C141.6,15.6,141.9,15.2,142.8,13.8z M106.1,15.7c3.9-0.9,1.9,4.2,0.7,5.5c-1.5-0.2-2.9-1-2.8-2.6C104,18,104.7,16,106.1,15.7z
			 M133.1,15.6c0.4-0.2,1.4-0.2,1,0.7c-1.4,3.3-7,12.8-9.1,13.1c-1,0.2-0.9-1.2-0.7-1.7C125.8,23.5,130,16.8,133.1,15.6z
			 M106.4,22.5c-1.5,2.8-2.6,4.6-5.2,6.5c-2,1.5-2.9-0.6-2.6-2c0.8-3,2.5-5.7,3.9-7.2C103.6,21.4,104,21.9,106.4,22.5z M171.5,25.8
			h0.3H171.5z M171.5,25.1c1,0,1.3,0.9,1.3,1.8c0,1.7-1.2,3.5-1.4,4.2c0,0-2.7-0.2-2.8-2.8C168.6,26.7,170,25.1,171.5,25.1z
			 M194.1,25.6c0.8-0.5,2.3-0.3,1.7,0.8c-2.6,4.4-3.5,6.5-6.1,10.4c-2.1,3.1-4.1,3.5-3.5,0.6C187,33,192.8,26.3,194.1,25.6z
			 M167.1,29.7c0,0,0.6,2,3.8,2.9c-0.6,0.8-2.4,4.2-4.3,5.6C161.6,41.9,162.9,34.1,167.1,29.7z M208.4,4c0,0-5.3,10.6-17.7,10.1
			c0,0,3.2-3.9,4-3.9C194.6,10.3,199,11.6,208.4,4z M197.9,8.6c0-0.1,0.9-1.3,0.9-2.4c0-0.4-0.3-0.7-0.6-0.7c0,0-7.2,3.3-17,22.3
			c0,0,0.6,1.4,12.8-12.6l1.3-0.1c0,0-5,8-16.1,16.1c-1.1,2.7-1,2.6-2,6.4c-0.2,0.8,0.4,3.6,2.8,0.6c2.3-2.8,7.2-12.8,13.2-15
			c1.3-0.5,3,0.2,3.6,0.9c0,0,0.6-0.6,0.9-1c1.2-0.1,2.9,0.1,3.8,0c0.1,0.4-4.4,8.3-8,14.9c-0.5,0.8,0.2,1.3,0.5,1.1
			c2.2-1.6,2.6-1.5,5.5-6.1c0,0,0,0,0.8,0c-1.7,4.5-10.6,14.4-11.9,7.2H188c-0.5,0.7-7.2,6.1-7.2-1.1c-3.2,4-7.6,4.8-8.1,1.7
			c-0.6-3.2,1.5-8.1,1.5-8.1H172c-0.6,0.6-4.5,8.7-10.4,10.1c-2,0.5-3.8-1.3-3.4-4c0.8-7.1,8.1-14.9,12.2-15.6
			c2-0.4,3.9,0.4,3.7,3.8c-0.1,1.7-1.1,3.7-1.3,4.2c0,0,1.9,0,2.3-0.8c6.4-15.2,19.4-26.5,23.1-26.6c0.3,0,1.7,0.2,1.7,1.9
			c0,0.6-0.3,1.6-0.6,2.3C199.3,8.4,198.9,8.5,197.9,8.6z"/>
		<path class="st0" d="M238.4,4.7c1.7,0.2,4.2,3.3,0.6,7c-1.3,1.3-2.5,0.4-2.5-0.6c0-1.6,1.5-3.1,2.9-2.8c0.5-2.6-1.7-2.2-3.8-1.3
			c-13.6,6-28.9,34.6-15.1,33.3c2.4-0.2,9.4-6.4,9.9-13.4c0.1-1-0.3-2.1-2.5-1.6c-2.4,0.6-3.5,6.1-3.8,6.2c-0.6,0.5-1.7-0.5-5.4,3.6
			c0,0,1.3-10.9,9-12.1c8-1.2,1.4,13.1-4.5,17.2c-10.6,7.4-13.3-1.6-13-5.4C211.3,22.1,227.5,3.6,238.4,4.7z M280.3,23.3h4.2
			c0,0.2-0.8,1.7-0.8,1.7c1.4-1,2.4-1.7,4.1-2c2.8-0.4,3.1,1.8,2.8,3.5c-1.7,7.2-7.5,12.5-7.5,12.6c10-5,12.8-15.9,19.1-16.2
			c1-0.1,1.6,0.1,2.5,0.9c0.3,0.3,0.1,0.3,0.6-0.5h3.9c0,0.1-6.6,11.6-8.1,14.4c-0.8,1.6,0.2,1.9,0.6,1.7c5.9-3.3,12.1-15.2,13-16.1
			h4c0,0.2-0.3,0.6-1.3,2.4c0.3,0,4-3.4,6.8-2.3c1.3,0.6,0.9,2.7,0.6,3.5c0,0-6.8,11.2-6.8,11.7c0,0.6,0.6,0.8,0.9,0.7
			c3.5-1,8.5-6.8,13.5-16.2h4.2c0,0-8.3,13.7-9.9,16.4c-0.2,0.3-0.2,1.7,1,1.1c6.4-3.9,8.2-8.5,13.5-17.5h4.2
			c0,0-17.6,29.6-19.5,33.1c-2.8,0.2-2.6-0.1-4.1,0l8.8-15.1c0,0-7.5,5.2-8-0.3c0,0,0.1-1,1.1-3.1c0,0-10.6,10.2-10.6,2.5
			c0.1-3,7.2-12.1,7.2-13.7c0-0.4-0.2-0.6-0.6-0.6c-3.8-0.1-11,14.3-12.8,17c-0.6,0-4.4,0-4.4,0l2.5-4.3c-2.9,3-9.8,7.2-9.1,1.3
			c0,0-3.7,3.4-5.2,3c-4.3-1-1.4-6.8-1.4-6.8c-0.5,0.1-11.7,10.5-15.6,5.8c-4.1,7.1-4,7.2-4.4,7.7c-3.9,6.2-3,5.1-4.1,7
			c-0.6,0-2.9,0-4.1,0.2l10.4-18.9c-0.5,0.1-4,3.9-7.3,4.9c-0.5,0.1-3.4,0.7-3.3-2.5c0.1-2.7,7.1-12.1,7.1-13.9
			c0-0.4-0.1-0.7-1.1-0.5c-1,0.3-3,1.6-6.5,7.2c-1,1.6-4.4,7.5-5.9,9.8h-3.9l9.4-16.7c-0.3-0.7-0.4-0.6-0.9-0.6
			c-5,1.3-10.6,14-12.4,17.2h-4.3c1.8-3.2,7.6-13.5,7.6-13.5s-2.4,1.6-6,2.2c-0.5,0.1-5,9.6-10.8,11.2c-2.8,0.7-3.9-1.4-3.9-3.4
			c0.6-8.5,9.5-17.1,13.3-16.5c1.8,0.3,2.9,1.2,2.8,3.8c-0.1,1.5-0.9,3.8-0.9,3.8s5.3,0,8.7-7.1c5.6,0,0.6,0,4.4,0
			c0,0-0.8,1.2-1.2,2.2c0,0,9.1-6.3,7.7,0.7c1.2-0.9,7.3-6.6,8.3-1.3c0.4,2.2-6.8,12.6-6.8,13.8c0,0.8,0.7,0.7,1,0.7
			c0.4,0,4.8-2.5,8-7.2C277,29,280.3,23.4,280.3,23.3z M243,24.7c0.1,0,1.5,0.4,1.5,2.1c0,1.4-0.6,2.6-1.1,3.8c0,0-3.4-0.3-3.2-2.8
			C240.2,25.7,241.9,24.7,243,24.7z M301.5,25.5c1.8-1.3,1.9-0.4,1.7,0c-0.6,1.7-2.5,5.9-6.7,11.9c-1,1.4-3.1,2.8-2.8,0.7
			C294.4,32.9,299.8,26.8,301.5,25.5z M284.7,26.6c0.8,0,1.2,0.6,1.2,1.2c0,1.1-4,9.8-7.8,12.5c-2.5,2.3-3,0.2-3-0.4
			c0-0.4,6.5-12.3,8-12.7C283.2,26.8,284.1,26.6,284.7,26.6z M238.7,28.8c0.5,0.5,1.1,2,4,2.8c0,0-3.6,6.7-6.1,7.2
			c-1.8,0.4-1.9-0.4-2-1.4C234.4,35.4,237.5,29.6,238.7,28.8z"/>
	</g>
</g>
</svg>
