<svg xmlns="http://www.w3.org/2000/svg" xmlns:xlink="http://www.w3.org/1999/xlink" viewBox="0 0 24 24"><defs><style>.a{fill:none;}.b{clip-path:url(#a);}.c{fill:#363636;}</style><clipPath id="a" transform="translate(3 3)"><path class="a" d="M11.75,6.61h3.12a6.37,6.37,0,0,0-4.46-3.79A8.5,8.5,0,0,1,11.75,6.61Zm-4.83,0h4.16C10.89,5.35,10.2,2.67,9,2.67S7.11,5.35,6.92,6.61Zm-3.79,0H6.25A8.5,8.5,0,0,1,7.59,2.82,6.37,6.37,0,0,0,3.13,6.61Zm8.71,4.12H15.1a6.55,6.55,0,0,0,0-3.46H11.84A18.18,18.18,0,0,1,11.84,10.73Zm-5,0h4.34a16.67,16.67,0,0,0,0-3.46H6.83A16.67,16.67,0,0,0,6.83,10.73Zm-3.93,0H6.16a18.18,18.18,0,0,1,0-3.46H2.9A6.55,6.55,0,0,0,2.9,10.73Zm3.35.66H3.13a6.37,6.37,0,0,0,4.46,3.79A8.5,8.5,0,0,1,6.25,11.39Zm4.83,0H6.92c.19,1.26.88,3.94,2.08,3.94S10.89,12.65,11.08,11.39Zm3.79,0H11.75a8.5,8.5,0,0,1-1.34,3.79A6.37,6.37,0,0,0,14.87,11.39ZM9,2A7,7,0,1,1,2,9,7,7,0,0,1,9,2Z"/></clipPath></defs><title>icon-globe</title><g class="b"><rect class="c" width="24" height="24"/></g></svg>