<?xml version="1.0" encoding="UTF-8"?>
<svg width="43px" height="42px" viewBox="0 0 43 42" version="1.1" xmlns="http://www.w3.org/2000/svg" xmlns:xlink="http://www.w3.org/1999/xlink">
    <!-- Generator: Sketch 54.1 (76490) - https://sketchapp.com -->
    <title>Group 17</title>
    <desc>Created with Sketch.</desc>
    <g id="Page-1" stroke="none" stroke-width="1" fill="none" fill-rule="evenodd">
        <g id="nav-home-page-" transform="translate(-1338.000000, -4212.000000)">
            <g id="footer" transform="translate(-1.000000, 4026.000000)">
                <g id="Social">
                    <g transform="translate(1079.000000, 187.000000)">
                        <g id="Group-17" transform="translate(261.432836, 0.000000)">
                            <ellipse id="Oval-4" stroke="#D6D5D5" stroke-width="0.9" cx="20.2835821" cy="20.0543478" rx="20.2835821" ry="20.0543478"></ellipse>
                            <g id="Instagram" transform="translate(9.916418, 9.804348)" fill="#B7B7B7">
                                <path d="M10.8145191,0 C7.87745643,0 7.50917527,0.0123084886 6.3556941,0.0643436853 C5.20461692,0.116251553 4.41847249,0.297016563 3.73059076,0.561351967 C3.01944193,0.834557971 2.41634343,1.20016253 1.81509083,1.79457764 C1.21388117,2.3890352 0.844097512,2.98531781 0.567768586,3.68842961 C0.300411656,4.36853727 0.117580384,5.1457971 0.0650791756,6.28386542 C0.0124491827,7.42431056 0,7.78842961 0,10.6922992 C0,13.5961263 0.0124491827,13.9602453 0.0650791756,15.1006905 C0.117580384,16.2387588 0.300411656,17.0160186 0.567768586,17.6961263 C0.844097512,18.3992381 1.21388117,18.9955207 1.81509083,19.5899783 C2.41634343,20.1843934 3.01944193,20.5499979 3.73059076,20.8232464 C4.41847249,21.0875393 5.20461692,21.2683043 6.3556941,21.3202122 C7.50917527,21.3722474 7.87745643,21.3845559 10.8145191,21.3845559 C13.7515389,21.3845559 14.11982,21.3722474 15.2733012,21.3202122 C16.4243784,21.2683043 17.2105228,21.0875393 17.8984045,20.8232464 C18.6095534,20.5499979 19.2126519,20.1843934 19.8139045,19.5899783 C20.4151141,18.9955207 20.7848978,18.3992381 21.0612697,17.6961263 C21.3285837,17.0160186 21.5114149,16.2387588 21.5639161,15.1006905 C21.6165461,13.9602453 21.6289953,13.5961263 21.6289953,10.6922992 C21.6289953,7.78842961 21.6165461,7.42431056 21.5639161,6.28386542 C21.5114149,5.1457971 21.3285837,4.36853727 21.0612697,3.68842961 C20.7848978,2.98531781 20.4151141,2.3890352 19.8139045,1.79457764 C19.2126519,1.20016253 18.6095534,0.834557971 17.8984045,0.561351967 C17.2105228,0.297016563 16.4243784,0.116251553 15.2733012,0.0643436853 C14.11982,0.0123084886 13.7515389,0 10.8145191,0 Z M10.8145191,1.92653313 C13.7020856,1.92653313 14.0441376,1.93744099 15.1844827,1.98888199 C16.2388856,2.03641822 16.811505,2.21060455 17.1925788,2.35703313 C17.6973717,2.55099793 18.0576253,2.78269462 18.4360375,3.15687267 C18.8144927,3.53100828 19.0488378,3.88719048 19.2450198,4.38627847 C19.3931221,4.76304555 19.5692995,5.32919358 19.6173791,6.37168012 C19.6694081,7.49913768 19.6804407,7.83732402 19.6804407,10.6922992 C19.6804407,13.5472319 19.6694081,13.8854182 19.6173791,15.0128758 C19.5692995,16.0553623 19.3931221,16.6215104 19.2450198,16.9982774 C19.0488378,17.4973654 18.8144927,17.8535476 18.4360375,18.2276832 C18.0576253,18.6018613 17.6973717,18.833558 17.1925788,19.0275228 C16.811505,19.1739513 16.2388856,19.3481377 15.1844827,19.3956739 C14.0443093,19.4471149 13.7023002,19.4580228 10.8145191,19.4580228 C7.9266951,19.4580228 7.58472893,19.4471149 6.44451258,19.3956739 C5.39010974,19.3481377 4.81749026,19.1739513 4.43641649,19.0275228 C3.9316236,18.833558 3.57137001,18.6018613 3.19295778,18.2276832 C2.81454556,17.8535476 2.5801575,17.4973654 2.38397555,16.9982774 C2.23587321,16.6215104 2.05969581,16.0553623 2.0116162,15.0128758 C1.95958721,13.8854182 1.94855466,13.5472319 1.94855466,10.6922992 C1.94855466,7.83732402 1.95958721,7.49913768 2.0116162,6.37168012 C2.05969581,5.32919358 2.23587321,4.76304555 2.38397555,4.38627847 C2.5801575,3.88719048 2.81450263,3.53100828 3.19295778,3.15687267 C3.57137001,2.78269462 3.9316236,2.55099793 4.43641649,2.35703313 C4.81749026,2.21060455 5.39010974,2.03641822 6.44451258,1.98888199 C7.58485771,1.93744099 7.92690974,1.92653313 10.8145191,1.92653313 L10.8145191,1.92653313 Z" id="Fill-1"></path>
                                <path d="M10.8145191,14.2563706 C8.82359431,14.2563706 7.2096651,12.6606812 7.2096651,10.6922992 C7.2096651,8.72387474 8.82359431,7.1281853 10.8145191,7.1281853 C12.805401,7.1281853 14.4193302,8.72387474 14.4193302,10.6922992 C14.4193302,12.6606812 12.805401,14.2563706 10.8145191,14.2563706 Z M10.8145191,5.20165217 C7.74742687,5.20165217 5.26111045,7.65986957 5.26111045,10.6922992 C5.26111045,13.7246863 7.74742687,16.1829037 10.8145191,16.1829037 C13.8815684,16.1829037 16.3678849,13.7246863 16.3678849,10.6922992 C16.3678849,7.65986957 13.8815684,5.20165217 10.8145191,5.20165217 L10.8145191,5.20165217 Z" id="Fill-4"></path>
                                <path d="M17.8850539,4.98472567 C17.8850539,5.69335507 17.3040205,6.2677795 16.587291,6.2677795 C15.8706044,6.2677795 15.289571,5.69335507 15.289571,4.98472567 C15.289571,4.27609627 15.8706044,3.7016294 16.587291,3.7016294 C17.3040205,3.7016294 17.8850539,4.27609627 17.8850539,4.98472567" id="Fill-5"></path>
                            </g>
                        </g>
                    </g>
                </g>
            </g>
        </g>
    </g>
</svg>