<?xml version="1.0" encoding="UTF-8"?>
<svg width="42px" height="42px" viewBox="0 0 42 42" version="1.1" xmlns="http://www.w3.org/2000/svg" xmlns:xlink="http://www.w3.org/1999/xlink">
    <!-- Generator: Sketch 54.1 (76490) - https://sketchapp.com -->
    <title>Group 11</title>
    <desc>Created with Sketch.</desc>
    <g id="Page-1" stroke="none" stroke-width="1" fill="none" fill-rule="evenodd">
        <g id="nav-home-page-" transform="translate(-1182.000000, -4212.000000)">
            <g id="footer" transform="translate(-1.000000, 4026.000000)">
                <g id="Social">
                    <g transform="translate(1079.000000, 187.000000)">
                        <g id="Group-11" transform="translate(104.573134, 0.000000)">
                            <ellipse id="Oval-4" stroke="#D6D5D5" stroke-width="0.9" cx="20.2835821" cy="20.0543478" rx="20.2835821" ry="20.0543478"></ellipse>
                            <path d="M27.757246,27.4441234 L24.6543669,27.4441234 L24.6543669,22.6402805 C24.6543669,21.4948107 24.6316842,20.0209958 23.0404044,20.0209958 C21.4241156,20.0209958 21.1780953,21.2682468 21.1780953,22.5574755 L21.1780953,27.4441234 L18.0763794,27.4441234 L18.0763794,17.5655961 L21.0530496,17.5655961 L21.0530496,18.9152034 L21.095507,18.9152034 C21.5096119,18.138331 22.5233548,17.3194811 24.0343727,17.3194811 C27.1762195,17.3194811 27.757246,19.3648808 27.757246,22.025568 L27.757246,27.4441234 Z M14.5745171,16.2142637 C13.5764776,16.2142637 12.7726952,15.41669 12.7726952,14.4339551 C12.7726952,13.4523703 13.5764776,12.6542216 14.5745171,12.6542216 C15.5679037,12.6542216 16.3745941,13.4523703 16.3745941,14.4339551 C16.3745941,15.41669 15.5679037,16.2142637 14.5745171,16.2142637 Z M13.0192971,27.4441234 L16.1274107,27.4441234 L16.1274107,17.5655961 L13.0192971,17.5655961 L13.0192971,27.4441234 Z M29.3037419,9.80434783 L11.461169,9.80434783 C10.6091131,9.80434783 9.91641791,10.4725386 9.91641791,11.2959888 L9.91641791,29.011669 C9.91641791,29.8362693 10.6091131,30.5056101 11.461169,30.5056101 L29.3037419,30.5056101 C30.156961,30.5056101 30.8548907,29.8362693 30.8548907,29.011669 L30.8548907,11.2959888 C30.8548907,10.4725386 30.156961,9.80434783 29.3037419,9.80434783 L29.3037419,9.80434783 Z" id="LinkedIn" fill="#B7B7B7"></path>
                        </g>
                    </g>
                </g>
            </g>
        </g>
    </g>
</svg>