<?xml version="1.0" encoding="UTF-8"?>
<svg width="43px" height="42px" viewBox="0 0 43 42" version="1.1" xmlns="http://www.w3.org/2000/svg" xmlns:xlink="http://www.w3.org/1999/xlink">
    <!-- Generator: Sketch 54.1 (76490) - https://sketchapp.com -->
    <title>Group 9</title>
    <desc>Created with Sketch.</desc>
    <g id="Page-1" stroke="none" stroke-width="1" fill="none" fill-rule="evenodd">
        <g id="nav-home-page-" transform="translate(-1129.000000, -4212.000000)">
            <g id="footer" transform="translate(-1.000000, 4026.000000)">
                <g id="Social">
                    <g transform="translate(1079.000000, 187.000000)">
                        <g id="Group-9" transform="translate(52.286567, 0.000000)">
                            <ellipse id="Oval-4" stroke="#D6D5D5" stroke-width="0.9" cx="20.2835821" cy="20.0543478" rx="20.2835821" ry="20.0543478"></ellipse>
                            <path d="M16.5012172,29.3024251 C24.4026748,29.3024251 28.7235855,22.8302997 28.7235855,17.2181875 C28.7235855,17.0342775 28.7198167,16.8511955 28.7112741,16.6691072 C29.5499622,16.0696815 30.2791034,15.3217035 30.8543091,14.4700535 C30.0845485,14.8080637 29.2562455,15.0359432 28.387323,15.1386215 C29.2742521,14.612975 29.9551523,13.7809499 30.2762558,12.7892766 C29.4461103,13.2757563 28.5271044,13.6295823 27.5486348,13.8201167 C26.7648039,12.9946332 25.6483956,12.4782609 24.41306,12.4782609 C22.0405457,12.4782609 20.1166885,14.3803757 20.1166885,16.7251662 C20.1166885,17.0585394 20.1544604,17.3825555 20.2280781,17.6935713 C16.6580001,17.5161201 13.492191,15.8259862 11.3736951,13.2561315 C11.0044345,13.8836282 10.7919568,14.612975 10.7919568,15.3907629 C10.7919568,16.8643615 11.5503272,18.165146 12.7035025,18.9261244 C11.9989843,18.9046779 11.3369282,18.7132327 10.7579536,18.3947644 C10.7569486,18.4124847 10.7569486,18.4302878 10.7569486,18.4489189 C10.7569486,20.5061276 12.2379275,22.2233387 14.2033255,22.6127708 C13.8426075,22.7098183 13.4628779,22.7621511 13.0709206,22.7621511 C12.7942054,22.7621511 12.5250279,22.7350739 12.263388,22.6855565 C12.8102857,24.3729578 14.3960379,25.6008738 16.276428,25.6354863 C14.805918,26.7746354 12.9538359,27.4534712 10.9412021,27.4534712 C10.5945543,27.4534712 10.2526804,27.4339292 9.91641791,27.3946796 C11.8176622,28.5992447 14.0749344,29.3024251 16.5012172,29.3024251" id="Twitter" fill="#B7B7B7"></path>
                        </g>
                    </g>
                </g>
            </g>
        </g>
    </g>
</svg>